<svg width="80" height="80" viewBox="0 0 80 80" fill="none" xmlns="http://www.w3.org/2000/svg">
  <defs>
    <linearGradient id="brainGradient" x1="0%" y1="0%" x2="100%" y2="100%">
      <stop offset="0%" style="stop-color:#c2704f;stop-opacity:1" />
      <stop offset="100%" style="stop-color:#d4a574;stop-opacity:1" />
    </linearGradient>
  </defs>
  
  <!-- Brain outline -->
  <path d="M40 10 C25 10 15 20 15 32 C15 35 16 38 17 40 C15 42 14 45 14 48 C14 54 18 59 23 61 C23 65 25 68 28 70 C30 72 33 73 36 73 C37 75 39 76 42 76 C45 76 47 75 48 73 C51 73 54 72 56 70 C59 68 61 65 61 61 C66 59 70 54 70 48 C70 45 69 42 67 40 C68 38 69 35 69 32 C69 20 59 10 44 10 C43 10 41 10 40 10 Z" 
        fill="url(#brainGradient)" stroke="url(#brainGradient)" stroke-width="2"/>
  
  <!-- Brain folds/details -->
  <path d="M30 25 Q35 28 40 25" stroke="white" stroke-width="2" fill="none" opacity="0.6"/>
  <path d="M45 28 Q50 31 55 28" stroke="white" stroke-width="2" fill="none" opacity="0.6"/>
  <path d="M25 38 Q30 42 35 38" stroke="white" stroke-width="2" fill="none" opacity="0.6"/>
  <path d="M45 40 Q50 44 55 40" stroke="white" stroke-width="2" fill="none" opacity="0.6"/>
  <path d="M28 52 Q33 56 38 52" stroke="white" stroke-width="2" fill="none" opacity="0.6"/>
  <path d="M42 54 Q47 58 52 54" stroke="white" stroke-width="2" fill="none" opacity="0.6"/>
</svg>
